<svg xmlns="http://www.w3.org/2000/svg" width="805" height="700"><rect width="805" height="700" x="0" y="0" fill="#FFFFFF" id="backgorund"/><g transform="translate(402.5,350)" id="viz"><g id="links"><path d="M0,0C-4.133020436540029,55.47124270350487,28.562374737700075,-47.73186958776277,57.12474947540015,-95.46373917552555" fill="none" stroke="#ccc"/><path d="M0,0C-4.133020436540029,55.47124270350487,52.439850108210635,18.552701841737242,104.87970021642127,37.105403683474485" fill="none" stroke="#ccc"/><path d="M0,0C-4.133020436540029,55.47124270350487,-23.093327590142216,50.604731456795385,-46.18665518028443,101.20946291359077" fill="none" stroke="#ccc"/><path d="M0,0C-4.133020436540029,55.47124270350487,-54.00339848439919,-13.333175808305802,-108.00679696879838,-26.666351616611603" fill="none" stroke="#ccc"/><path d="M0,0C-4.133020436540029,55.47124270350487,-21.173513888601356,-51.437563459102584,-42.34702777720271,-102.87512691820517" fill="none" stroke="#ccc"/><path d="M57.12474947540015,-95.46373917552555C85.68712421310023,-143.1956087632883,18.201125052861308,-165.87942811515268,24.268166737148412,-221.1725708202036" fill="none" stroke="#ccc"/><path d="M57.12474947540015,-95.46373917552555C85.68712421310023,-143.1956087632883,57.52114493510931,-156.64796044109272,76.69485991347908,-208.8639472547903" fill="none" stroke="#ccc"/><path d="M57.12474947540015,-95.46373917552555C85.68712421310023,-143.1956087632883,89.78246403390682,-140.6640493409749,119.70995204520909,-187.55206578796657" fill="none" stroke="#ccc"/><path d="M57.12474947540015,-95.46373917552555C85.68712421310023,-143.1956087632883,116.6136579122018,-119.36716639568844,155.48487721626907,-159.15622186091792" fill="none" stroke="#ccc"/><path d="M57.12474947540015,-95.46373917552555C85.68712421310023,-143.1956087632883,137.5758716090582,-94.4465201900416,183.43449547874425,-125.92869358672212" fill="none" stroke="#ccc"/><path d="M104.87970021642127,37.105403683474485C157.3195503246319,55.65810552521173,153.5055739792347,-65.44695854129284,204.6740986389796,-87.26261138839045" fill="none" stroke="#ccc"/><path d="M104.87970021642127,37.105403683474485C157.3195503246319,55.65810552521173,163.55333212408985,-33.12964195561372,218.07110949878646,-44.172855940818295" fill="none" stroke="#ccc"/><path d="M104.87970021642127,37.105403683474485C157.3195503246319,55.65810552521173,166.87351906966413,-0.703035067716591,222.49802542621885,-0.9373800902887879" fill="none" stroke="#ccc"/><path d="M104.87970021642127,37.105403683474485C157.3195503246319,55.65810552521173,164.091957676144,30.34954778922684,218.78927690152534,40.46606371896912" fill="none" stroke="#ccc"/><path d="M104.87970021642127,37.105403683474485C157.3195503246319,55.65810552521173,155.8328916853477,59.69401556255613,207.77718891379692,79.59202075007484" fill="none" stroke="#ccc"/><path d="M104.87970021642127,37.105403683474485C157.3195503246319,55.65810552521173,142.55043150624653,86.7562107424184,190.06724200832872,115.67494765655788" fill="none" stroke="#ccc"/><path d="M104.87970021642127,37.105403683474485C157.3195503246319,55.65810552521173,124.74082508645638,110.84670577761928,166.32110011527516,147.79560770349238" fill="none" stroke="#ccc"/><path d="M104.87970021642127,37.105403683474485C157.3195503246319,55.65810552521173,103.03342754620896,131.26834512966218,137.37790339494526,175.02446017288293" fill="none" stroke="#ccc"/><path d="M104.87970021642127,37.105403683474485C157.3195503246319,55.65810552521173,78.19519913740258,147.42040719270165,104.26026551653679,196.56054292360218" fill="none" stroke="#ccc"/><path d="M-46.18665518028443,101.20946291359077C-69.27998277042664,151.81419437038616,48.79918152750723,159.58040452149942,65.06557537000964,212.77387269533256" fill="none" stroke="#ccc"/><path d="M-46.18665518028443,101.20946291359077C-69.27998277042664,151.81419437038616,15.780915399907729,166.12714508514543,21.041220533210304,221.50286011352722" fill="none" stroke="#ccc"/><path d="M-46.18665518028443,101.20946291359077C-69.27998277042664,151.81419437038616,-16.62176104655187,166.04512243577446,-22.16234806206916,221.39349658103262" fill="none" stroke="#ccc"/><path d="M-46.18665518028443,101.20946291359077C-69.27998277042664,151.81419437038616,-46.58879339096926,160.23966411401884,-62.11839118795901,213.65288548535847" fill="none" stroke="#ccc"/><path d="M-46.18665518028443,101.20946291359077C-69.27998277042664,151.81419437038616,-73.93712223424974,149.60136222881667,-98.58282964566632,199.46848297175555" fill="none" stroke="#ccc"/><path d="M-46.18665518028443,101.20946291359077C-69.27998277042664,151.81419437038616,-98.85054298158117,134.4464048505819,-131.80072397544157,179.26187313410918" fill="none" stroke="#ccc"/><path d="M-46.18665518028443,101.20946291359077C-69.27998277042664,151.81419437038616,-120.68665913795734,115.247541974302,-160.91554551727646,153.66338929906934" fill="none" stroke="#ccc"/><path d="M-46.18665518028443,101.20946291359077C-69.27998277042664,151.81419437038616,-138.74122916536538,92.72613954373149,-184.9883055538205,123.63485272497532" fill="none" stroke="#ccc"/><path d="M-46.18665518028443,101.20946291359077C-69.27998277042664,151.81419437038616,-152.5216939448567,67.70818636761335,-203.36225859314226,90.27758182348445" fill="none" stroke="#ccc"/><path d="M-108.00679696879838,-26.666351616611603C-162.01019545319758,-39.9995274249174,-162.70662064808687,37.065094391887776,-216.94216086411583,49.420125855850365" fill="none" stroke="#ccc"/><path d="M-108.00679696879838,-26.666351616611603C-162.01019545319758,-39.9995274249174,-166.8398792569365,3.4234944911379688,-222.453172342582,4.564659321517292" fill="none" stroke="#ccc"/><path d="M-108.00679696879838,-26.666351616611603C-162.01019545319758,-39.9995274249174,-164.51269317461387,-27.979267492830356,-219.35025756615184,-37.30568999044048" fill="none" stroke="#ccc"/><path d="M-108.00679696879838,-26.666351616611603C-162.01019545319758,-39.9995274249174,-156.55246601121826,-57.7805418009069,-208.73662134829104,-77.0407224012092" fill="none" stroke="#ccc"/><path d="M-108.00679696879838,-26.666351616611603C-162.01019545319758,-39.9995274249174,-143.7565411586193,-84.742684044761,-191.67538821149242,-112.99024539301467" fill="none" stroke="#ccc"/><path d="M-108.00679696879838,-26.666351616611603C-162.01019545319758,-39.9995274249174,-126.75921107289862,-108.53279703931128,-169.01228143053152,-144.71039605241504" fill="none" stroke="#ccc"/><path d="M-42.34702777720271,-102.87512691820517C-63.52054166580407,-154.31269037730775,-103.84988088423697,-130.62338177114307,-138.4665078456493,-174.16450902819076" fill="none" stroke="#ccc"/><path d="M-42.34702777720271,-102.87512691820517C-63.52054166580407,-154.31269037730775,-75.80243056202919,-148.66491565224374,-101.0699074160389,-198.21988753632496" fill="none" stroke="#ccc"/><path d="M-42.34702777720271,-102.87512691820517C-63.52054166580407,-154.31269037730775,-46.90676991469381,-160.1468718432239,-62.54235988625842,-213.52916245763186" fill="none" stroke="#ccc"/><path d="M-42.34702777720271,-102.87512691820517C-63.52054166580407,-154.31269037730775,-18.201125052861368,-165.87942811515268,-24.268166737148487,-221.17257082020356" fill="none" stroke="#ccc"/></g><g><circle transform="&#10;&#9;        rotate(94.26108870267018)&#10;&#9;        translate(0,0)&#10;&#9;      " fill="#ccc" r="39.21877594509195"/><circle transform="&#10;&#9;        rotate(-59.104030207927906)&#10;&#9;        translate(111.25,0)&#10;&#9;      " fill="#ff7f0e" r="25.52038937531757"/><circle transform="&#10;&#9;        rotate(19.483277217922904)&#10;&#9;        translate(111.25,0)&#10;&#9;      " fill="#1f77b4" r="16.856387392192765"/><circle transform="&#10;&#9;        rotate(114.52945239191169)&#10;&#9;        translate(111.25,0)&#10;&#9;      " fill="#2ca02c" r="15.186691502469644"/><circle transform="&#10;&#9;        rotate(193.86868977737237)&#10;&#9;        translate(111.25,0)&#10;&#9;      " fill="#9467bd" r="14.988465723645495"/><circle transform="&#10;&#9;        rotate(247.62620761326815)&#10;&#9;        translate(111.25,0)&#10;&#9;      " fill="#d62728" r="12.140618324770198"/><circle transform="&#10;&#9;        rotate(-83.73826830307507)&#10;&#9;        translate(222.5,0)&#10;&#9;      " fill="#ff7f0e" r="18.5"/><circle transform="&#10;&#9;        rotate(-69.83676043710275)&#10;&#9;        translate(222.5,0)&#10;&#9;      " fill="#ff7f0e" r="10.879449638182766"/><circle transform="&#10;&#9;        rotate(-57.45089350897337)&#10;&#9;        translate(222.5,0)&#10;&#9;      " fill="#ff7f0e" r="9.75492909307247"/><circle transform="&#10;&#9;        rotate(-45.668517266606976)&#10;&#9;        translate(222.5,0)&#10;&#9;      " fill="#ff7f0e" r="7.39737897956173"/><circle transform="&#10;&#9;        rotate(-34.46979211278074)&#10;&#9;        translate(222.5,0)&#10;&#9;      " fill="#ff7f0e" r="6.3873305895290295"/><circle transform="&#10;&#9;        rotate(-23.090930570943854)&#10;&#9;        translate(222.5,0)&#10;&#9;      " fill="#1f77b4" r="8.43674486546393"/><circle transform="&#10;&#9;        rotate(-11.45099244254969)&#10;&#9;        translate(222.5,0)&#10;&#9;      " fill="#1f77b4" r="7.893711952407336"/><circle transform="&#10;&#9;        rotate(-0.24138463753030237)&#10;&#9;        translate(222.5,0)&#10;&#9;      " fill="#1f77b4" r="5.953789240981266"/><circle transform="&#10;&#9;        rotate(10.478698044976596)&#10;&#9;        translate(222.5,0)&#10;&#9;      " fill="#1f77b4" r="5.0692092616929605"/><circle transform="&#10;&#9;        rotate(20.960051969245498)&#10;&#9;        translate(222.5,0)&#10;&#9;      " fill="#1f77b4" r="4.576352233186213"/><circle transform="&#10;&#9;        rotate(31.324699164471923)&#10;&#9;        translate(222.5,0)&#10;&#9;      " fill="#1f77b4" r="4.395825087836691"/><circle transform="&#10;&#9;        rotate(41.624807178308174)&#10;&#9;        translate(222.5,0)&#10;&#9;      " fill="#1f77b4" r="4.203968706560835"/><circle transform="&#10;&#9;        rotate(51.87138752395103)&#10;&#9;        translate(222.5,0)&#10;&#9;      " fill="#1f77b4" r="4.086976704194891"/><circle transform="&#10;&#9;        rotate(62.05748500678965)&#10;&#9;        translate(222.5,0)&#10;&#9;      " fill="#1f77b4" r="3.8549896636553154"/><circle transform="&#10;&#9;        rotate(72.99653410865989)&#10;&#9;        translate(222.5,0)&#10;&#9;      " fill="#2ca02c" r="8.431419463367444"/><circle transform="&#10;&#9;        rotate(84.57358515342742)&#10;&#9;        translate(222.5,0)&#10;&#9;      " fill="#2ca02c" r="7.536186238706301"/><circle transform="&#10;&#9;        rotate(95.7164860450666)&#10;&#9;        translate(222.5,0)&#10;&#9;      " fill="#2ca02c" r="5.9264238680623125"/><circle transform="&#10;&#9;        rotate(106.21149623527808)&#10;&#9;        translate(222.5,0)&#10;&#9;      " fill="#2ca02c" r="3.7979326837526055"/><circle transform="&#10;&#9;        rotate(116.29985341652588)&#10;&#9;        translate(222.5,0)&#10;&#9;      " fill="#2ca02c" r="3.580083577885616"/><circle transform="&#10;&#9;        rotate(126.32485985951871)&#10;&#9;        translate(222.5,0)&#10;&#9;      " fill="#2ca02c" r="3.4324063349886904"/><circle transform="&#10;&#9;        rotate(136.32063628557228)&#10;&#9;        translate(222.5,0)&#10;&#9;      " fill="#2ca02c" r="3.4114297995654"/><circle transform="&#10;&#9;        rotate(146.2436583125847)&#10;&#9;        translate(222.5,0)&#10;&#9;      " fill="#2ca02c" r="3.0126219635588996"/><circle transform="&#10;&#9;        rotate(156.06237067516355)&#10;&#9;        translate(222.5,0)&#10;&#9;      " fill="#2ca02c" r="2.8095752382547405"/><circle transform="&#10;&#9;        rotate(167.16683436623669)&#10;&#9;        translate(222.5,0)&#10;&#9;      " fill="#9467bd" r="10.43125671775198"/><circle transform="&#10;&#9;        rotate(178.82447611997617)&#10;&#9;        translate(222.5,0)&#10;&#9;      " fill="#9467bd" r="6.0013479473362725"/><circle transform="&#10;&#9;        rotate(189.65214430246994)&#10;&#9;        translate(222.5,0)&#10;&#9;      " fill="#9467bd" r="5.642406304573371"/><circle transform="&#10;&#9;        rotate(200.25814583361506)&#10;&#9;        translate(222.5,0)&#10;&#9;      " fill="#9467bd" r="4.722357300314112"/><circle transform="&#10;&#9;        rotate(210.51881812917003)&#10;&#9;        translate(222.5,0)&#10;&#9;      " fill="#9467bd" r="3.6498970129138746"/><circle transform="&#10;&#9;        rotate(220.570545188508)&#10;&#9;        translate(222.5,0)&#10;&#9;      " fill="#9467bd" r="3.516767730410389"/><circle transform="&#10;&#9;        rotate(231.5141469234614)&#10;&#9;        translate(222.5,0)&#10;&#9;      " fill="#d62728" r="8.79590955692116"/><circle transform="&#10;&#9;        rotate(242.9835191312306)&#10;&#9;        translate(222.5,0)&#10;&#9;      " fill="#d62728" r="6.550401852279571"/><circle transform="&#10;&#9;        rotate(253.67477422388873)&#10;&#9;        translate(222.5,0)&#10;&#9;      " fill="#d62728" r="4.306264829309702"/><circle transform="&#10;&#9;        rotate(263.7382683030751)&#10;&#9;        translate(222.5,0)&#10;&#9;      " fill="#d62728" r="2.9282942419967943"/></g><g id="labels"><g transform="&#10;&#9;        rotate(94.26108870267018)&#10;&#9;        translate(0,0)&#10;&#9;        rotate(180)&#10;&#9;      "><text x="0" y="0" text-anchor="middle" dominant-baseline="text-before-edge" transform="translate(0,0)" style="stroke-width: 2px; paint-order: stroke; stroke: white; stroke-linecap: round; stroke-linejoin: round;"><tspan x="6" y="0" dy="0" text-anchor="start" style="font-family: Arial, sans-serif; font-size: 10px; fill: black; font-weight: normal;"/></text></g><g transform="&#10;&#9;        rotate(-59.104030207927906)&#10;&#9;        translate(111.25,0)&#10;&#9;        rotate(0)&#10;&#9;      "><text x="0" y="0" text-anchor="middle" dominant-baseline="text-before-edge" transform="translate(0,-5.5)" style="stroke-width: 2px; paint-order: stroke; stroke: white; stroke-linecap: round; stroke-linejoin: round;"><tspan x="-6" y="0" dy="0" text-anchor="end" style="font-family: Arial, sans-serif; font-size: 10px; fill: black; font-weight: normal;">Asia</tspan></text></g><g transform="&#10;&#9;        rotate(19.483277217922904)&#10;&#9;        translate(111.25,0)&#10;&#9;        rotate(0)&#10;&#9;      "><text x="0" y="0" text-anchor="middle" dominant-baseline="text-before-edge" transform="translate(0,-5.5)" style="stroke-width: 2px; paint-order: stroke; stroke: white; stroke-linecap: round; stroke-linejoin: round;"><tspan x="-6" y="0" dy="0" text-anchor="end" style="font-family: Arial, sans-serif; font-size: 10px; fill: black; font-weight: normal;">Africa</tspan></text></g><g transform="&#10;&#9;        rotate(114.52945239191169)&#10;&#9;        translate(111.25,0)&#10;&#9;        rotate(180)&#10;&#9;      "><text x="0" y="0" text-anchor="middle" dominant-baseline="text-before-edge" transform="translate(0,-5.5)" style="stroke-width: 2px; paint-order: stroke; stroke: white; stroke-linecap: round; stroke-linejoin: round;"><tspan x="6" y="0" dy="0" text-anchor="start" style="font-family: Arial, sans-serif; font-size: 10px; fill: black; font-weight: normal;">Europe</tspan></text></g><g transform="&#10;&#9;        rotate(193.86868977737237)&#10;&#9;        translate(111.25,0)&#10;&#9;        rotate(180)&#10;&#9;      "><text x="0" y="0" text-anchor="middle" dominant-baseline="text-before-edge" transform="translate(0,-5.5)" style="stroke-width: 2px; paint-order: stroke; stroke: white; stroke-linecap: round; stroke-linejoin: round;"><tspan x="6" y="0" dy="0" text-anchor="start" style="font-family: Arial, sans-serif; font-size: 10px; fill: black; font-weight: normal;">South America</tspan></text></g><g transform="&#10;&#9;        rotate(247.62620761326815)&#10;&#9;        translate(111.25,0)&#10;&#9;        rotate(180)&#10;&#9;      "><text x="0" y="0" text-anchor="middle" dominant-baseline="text-before-edge" transform="translate(0,-5.5)" style="stroke-width: 2px; paint-order: stroke; stroke: white; stroke-linecap: round; stroke-linejoin: round;"><tspan x="6" y="0" dy="0" text-anchor="start" style="font-family: Arial, sans-serif; font-size: 10px; fill: black; font-weight: normal;">North America</tspan></text></g><g transform="&#10;&#9;        rotate(-83.73826830307507)&#10;&#9;        translate(222.5,0)&#10;&#9;        rotate(0)&#10;&#9;      "><text x="0" y="0" text-anchor="middle" dominant-baseline="text-before-edge" transform="translate(0,-5.5)" style="stroke-width: 2px; paint-order: stroke; stroke: white; stroke-linecap: round; stroke-linejoin: round;"><tspan x="23.5" y="0" dy="0" text-anchor="start" style="font-family: Arial, sans-serif; font-size: 10px; fill: black; font-weight: bold;">China</tspan></text></g><g transform="&#10;&#9;        rotate(-69.83676043710275)&#10;&#9;        translate(222.5,0)&#10;&#9;        rotate(0)&#10;&#9;      "><text x="0" y="0" text-anchor="middle" dominant-baseline="text-before-edge" transform="translate(0,-5.5)" style="stroke-width: 2px; paint-order: stroke; stroke: white; stroke-linecap: round; stroke-linejoin: round;"><tspan x="15.879449638182766" y="0" dy="0" text-anchor="start" style="font-family: Arial, sans-serif; font-size: 10px; fill: black; font-weight: bold;">India</tspan></text></g><g transform="&#10;&#9;        rotate(-57.45089350897337)&#10;&#9;        translate(222.5,0)&#10;&#9;        rotate(0)&#10;&#9;      "><text x="0" y="0" text-anchor="middle" dominant-baseline="text-before-edge" transform="translate(0,-5.5)" style="stroke-width: 2px; paint-order: stroke; stroke: white; stroke-linecap: round; stroke-linejoin: round;"><tspan x="14.75492909307247" y="0" dy="0" text-anchor="start" style="font-family: Arial, sans-serif; font-size: 10px; fill: black; font-weight: bold;">Pakistan</tspan></text></g><g transform="&#10;&#9;        rotate(-45.668517266606976)&#10;&#9;        translate(222.5,0)&#10;&#9;        rotate(0)&#10;&#9;      "><text x="0" y="0" text-anchor="middle" dominant-baseline="text-before-edge" transform="translate(0,-5.5)" style="stroke-width: 2px; paint-order: stroke; stroke: white; stroke-linecap: round; stroke-linejoin: round;"><tspan x="12.39737897956173" y="0" dy="0" text-anchor="start" style="font-family: Arial, sans-serif; font-size: 10px; fill: black; font-weight: bold;">Japan</tspan></text></g><g transform="&#10;&#9;        rotate(-34.46979211278074)&#10;&#9;        translate(222.5,0)&#10;&#9;        rotate(0)&#10;&#9;      "><text x="0" y="0" text-anchor="middle" dominant-baseline="text-before-edge" transform="translate(0,-5.5)" style="stroke-width: 2px; paint-order: stroke; stroke: white; stroke-linecap: round; stroke-linejoin: round;"><tspan x="11.387330589529029" y="0" dy="0" text-anchor="start" style="font-family: Arial, sans-serif; font-size: 10px; fill: black; font-weight: bold;">Indonesia</tspan></text></g><g transform="&#10;&#9;        rotate(-23.090930570943854)&#10;&#9;        translate(222.5,0)&#10;&#9;        rotate(0)&#10;&#9;      "><text x="0" y="0" text-anchor="middle" dominant-baseline="text-before-edge" transform="translate(0,-5.5)" style="stroke-width: 2px; paint-order: stroke; stroke: white; stroke-linecap: round; stroke-linejoin: round;"><tspan x="13.43674486546393" y="0" dy="0" text-anchor="start" style="font-family: Arial, sans-serif; font-size: 10px; fill: black; font-weight: bold;">Nigeria</tspan></text></g><g transform="&#10;&#9;        rotate(-11.45099244254969)&#10;&#9;        translate(222.5,0)&#10;&#9;        rotate(0)&#10;&#9;      "><text x="0" y="0" text-anchor="middle" dominant-baseline="text-before-edge" transform="translate(0,-5.5)" style="stroke-width: 2px; paint-order: stroke; stroke: white; stroke-linecap: round; stroke-linejoin: round;"><tspan x="12.893711952407337" y="0" dy="0" text-anchor="start" style="font-family: Arial, sans-serif; font-size: 10px; fill: black; font-weight: bold;">Egypt</tspan></text></g><g transform="&#10;&#9;        rotate(-0.24138463753030237)&#10;&#9;        translate(222.5,0)&#10;&#9;        rotate(0)&#10;&#9;      "><text x="0" y="0" text-anchor="middle" dominant-baseline="text-before-edge" transform="translate(0,-5.5)" style="stroke-width: 2px; paint-order: stroke; stroke: white; stroke-linecap: round; stroke-linejoin: round;"><tspan x="10.953789240981266" y="0" dy="0" text-anchor="start" style="font-family: Arial, sans-serif; font-size: 10px; fill: black; font-weight: bold;">Democratic Republic of the Congo</tspan></text></g><g transform="&#10;&#9;        rotate(10.478698044976596)&#10;&#9;        translate(222.5,0)&#10;&#9;        rotate(0)&#10;&#9;      "><text x="0" y="0" text-anchor="middle" dominant-baseline="text-before-edge" transform="translate(0,-5.5)" style="stroke-width: 2px; paint-order: stroke; stroke: white; stroke-linecap: round; stroke-linejoin: round;"><tspan x="10.069209261692961" y="0" dy="0" text-anchor="start" style="font-family: Arial, sans-serif; font-size: 10px; fill: black; font-weight: bold;">Somalia</tspan></text></g><g transform="&#10;&#9;        rotate(20.960051969245498)&#10;&#9;        translate(222.5,0)&#10;&#9;        rotate(0)&#10;&#9;      "><text x="0" y="0" text-anchor="middle" dominant-baseline="text-before-edge" transform="translate(0,-5.5)" style="stroke-width: 2px; paint-order: stroke; stroke: white; stroke-linecap: round; stroke-linejoin: round;"><tspan x="9.576352233186213" y="0" dy="0" text-anchor="start" style="font-family: Arial, sans-serif; font-size: 10px; fill: black; font-weight: bold;">Sudan</tspan></text></g><g transform="&#10;&#9;        rotate(31.324699164471923)&#10;&#9;        translate(222.5,0)&#10;&#9;        rotate(0)&#10;&#9;      "><text x="0" y="0" text-anchor="middle" dominant-baseline="text-before-edge" transform="translate(0,-5.5)" style="stroke-width: 2px; paint-order: stroke; stroke: white; stroke-linecap: round; stroke-linejoin: round;"><tspan x="9.395825087836691" y="0" dy="0" text-anchor="start" style="font-family: Arial, sans-serif; font-size: 10px; fill: black; font-weight: bold;">Angola</tspan></text></g><g transform="&#10;&#9;        rotate(41.624807178308174)&#10;&#9;        translate(222.5,0)&#10;&#9;        rotate(0)&#10;&#9;      "><text x="0" y="0" text-anchor="middle" dominant-baseline="text-before-edge" transform="translate(0,-5.5)" style="stroke-width: 2px; paint-order: stroke; stroke: white; stroke-linecap: round; stroke-linejoin: round;"><tspan x="9.203968706560836" y="0" dy="0" text-anchor="start" style="font-family: Arial, sans-serif; font-size: 10px; fill: black; font-weight: bold;">Tanzania</tspan></text></g><g transform="&#10;&#9;        rotate(51.87138752395103)&#10;&#9;        translate(222.5,0)&#10;&#9;        rotate(0)&#10;&#9;      "><text x="0" y="0" text-anchor="middle" dominant-baseline="text-before-edge" transform="translate(0,-5.5)" style="stroke-width: 2px; paint-order: stroke; stroke: white; stroke-linecap: round; stroke-linejoin: round;"><tspan x="9.08697670419489" y="0" dy="0" text-anchor="start" style="font-family: Arial, sans-serif; font-size: 10px; fill: black; font-weight: bold;">Ivory Coast</tspan></text></g><g transform="&#10;&#9;        rotate(62.05748500678965)&#10;&#9;        translate(222.5,0)&#10;&#9;        rotate(0)&#10;&#9;      "><text x="0" y="0" text-anchor="middle" dominant-baseline="text-before-edge" transform="translate(0,-5.5)" style="stroke-width: 2px; paint-order: stroke; stroke: white; stroke-linecap: round; stroke-linejoin: round;"><tspan x="8.854989663655315" y="0" dy="0" text-anchor="start" style="font-family: Arial, sans-serif; font-size: 10px; fill: black; font-weight: bold;">South Africa</tspan></text></g><g transform="&#10;&#9;        rotate(72.99653410865989)&#10;&#9;        translate(222.5,0)&#10;&#9;        rotate(0)&#10;&#9;      "><text x="0" y="0" text-anchor="middle" dominant-baseline="text-before-edge" transform="translate(0,-5.5)" style="stroke-width: 2px; paint-order: stroke; stroke: white; stroke-linecap: round; stroke-linejoin: round;"><tspan x="13.431419463367444" y="0" dy="0" text-anchor="start" style="font-family: Arial, sans-serif; font-size: 10px; fill: black; font-weight: bold;">Russia</tspan></text></g><g transform="&#10;&#9;        rotate(84.57358515342742)&#10;&#9;        translate(222.5,0)&#10;&#9;        rotate(0)&#10;&#9;      "><text x="0" y="0" text-anchor="middle" dominant-baseline="text-before-edge" transform="translate(0,-5.5)" style="stroke-width: 2px; paint-order: stroke; stroke: white; stroke-linecap: round; stroke-linejoin: round;"><tspan x="12.5361862387063" y="0" dy="0" text-anchor="start" style="font-family: Arial, sans-serif; font-size: 10px; fill: black; font-weight: bold;">Turkey</tspan></text></g><g transform="&#10;&#9;        rotate(95.7164860450666)&#10;&#9;        translate(222.5,0)&#10;&#9;        rotate(180)&#10;&#9;      "><text x="0" y="0" text-anchor="middle" dominant-baseline="text-before-edge" transform="translate(0,-5.5)" style="stroke-width: 2px; paint-order: stroke; stroke: white; stroke-linecap: round; stroke-linejoin: round;"><tspan x="-10.926423868062312" y="0" dy="0" text-anchor="end" style="font-family: Arial, sans-serif; font-size: 10px; fill: black; font-weight: bold;">United Kingdom</tspan></text></g><g transform="&#10;&#9;        rotate(106.21149623527808)&#10;&#9;        translate(222.5,0)&#10;&#9;        rotate(180)&#10;&#9;      "><text x="0" y="0" text-anchor="middle" dominant-baseline="text-before-edge" transform="translate(0,-5.5)" style="stroke-width: 2px; paint-order: stroke; stroke: white; stroke-linecap: round; stroke-linejoin: round;"><tspan x="-8.797932683752606" y="0" dy="0" text-anchor="end" style="font-family: Arial, sans-serif; font-size: 10px; fill: black; font-weight: bold;">Germany</tspan></text></g><g transform="&#10;&#9;        rotate(116.29985341652588)&#10;&#9;        translate(222.5,0)&#10;&#9;        rotate(180)&#10;&#9;      "><text x="0" y="0" text-anchor="middle" dominant-baseline="text-before-edge" transform="translate(0,-5.5)" style="stroke-width: 2px; paint-order: stroke; stroke: white; stroke-linecap: round; stroke-linejoin: round;"><tspan x="-8.580083577885617" y="0" dy="0" text-anchor="end" style="font-family: Arial, sans-serif; font-size: 10px; fill: black; font-weight: bold;">Spain</tspan></text></g><g transform="&#10;&#9;        rotate(126.32485985951871)&#10;&#9;        translate(222.5,0)&#10;&#9;        rotate(180)&#10;&#9;      "><text x="0" y="0" text-anchor="middle" dominant-baseline="text-before-edge" transform="translate(0,-5.5)" style="stroke-width: 2px; paint-order: stroke; stroke: white; stroke-linecap: round; stroke-linejoin: round;"><tspan x="-8.432406334988691" y="0" dy="0" text-anchor="end" style="font-family: Arial, sans-serif; font-size: 10px; fill: black; font-weight: bold;">Ukraine</tspan></text></g><g transform="&#10;&#9;        rotate(136.32063628557228)&#10;&#9;        translate(222.5,0)&#10;&#9;        rotate(180)&#10;&#9;      "><text x="0" y="0" text-anchor="middle" dominant-baseline="text-before-edge" transform="translate(0,-5.5)" style="stroke-width: 2px; paint-order: stroke; stroke: white; stroke-linecap: round; stroke-linejoin: round;"><tspan x="-8.4114297995654" y="0" dy="0" text-anchor="end" style="font-family: Arial, sans-serif; font-size: 10px; fill: black; font-weight: bold;">Italy</tspan></text></g><g transform="&#10;&#9;        rotate(146.2436583125847)&#10;&#9;        translate(222.5,0)&#10;&#9;        rotate(180)&#10;&#9;      "><text x="0" y="0" text-anchor="middle" dominant-baseline="text-before-edge" transform="translate(0,-5.5)" style="stroke-width: 2px; paint-order: stroke; stroke: white; stroke-linecap: round; stroke-linejoin: round;"><tspan x="-8.0126219635589" y="0" dy="0" text-anchor="end" style="font-family: Arial, sans-serif; font-size: 10px; fill: black; font-weight: bold;">France</tspan></text></g><g transform="&#10;&#9;        rotate(156.06237067516355)&#10;&#9;        translate(222.5,0)&#10;&#9;        rotate(180)&#10;&#9;      "><text x="0" y="0" text-anchor="middle" dominant-baseline="text-before-edge" transform="translate(0,-5.5)" style="stroke-width: 2px; paint-order: stroke; stroke: white; stroke-linecap: round; stroke-linejoin: round;"><tspan x="-7.809575238254741" y="0" dy="0" text-anchor="end" style="font-family: Arial, sans-serif; font-size: 10px; fill: black; font-weight: bold;">Belarus</tspan></text></g><g transform="&#10;&#9;        rotate(167.16683436623669)&#10;&#9;        translate(222.5,0)&#10;&#9;        rotate(180)&#10;&#9;      "><text x="0" y="0" text-anchor="middle" dominant-baseline="text-before-edge" transform="translate(0,-5.5)" style="stroke-width: 2px; paint-order: stroke; stroke: white; stroke-linecap: round; stroke-linejoin: round;"><tspan x="-15.43125671775198" y="0" dy="0" text-anchor="end" style="font-family: Arial, sans-serif; font-size: 10px; fill: black; font-weight: bold;">Brazil</tspan></text></g><g transform="&#10;&#9;        rotate(178.82447611997617)&#10;&#9;        translate(222.5,0)&#10;&#9;        rotate(180)&#10;&#9;      "><text x="0" y="0" text-anchor="middle" dominant-baseline="text-before-edge" transform="translate(0,-5.5)" style="stroke-width: 2px; paint-order: stroke; stroke: white; stroke-linecap: round; stroke-linejoin: round;"><tspan x="-11.001347947336273" y="0" dy="0" text-anchor="end" style="font-family: Arial, sans-serif; font-size: 10px; fill: black; font-weight: bold;">Peru</tspan></text></g><g transform="&#10;&#9;        rotate(189.65214430246994)&#10;&#9;        translate(222.5,0)&#10;&#9;        rotate(180)&#10;&#9;      "><text x="0" y="0" text-anchor="middle" dominant-baseline="text-before-edge" transform="translate(0,-5.5)" style="stroke-width: 2px; paint-order: stroke; stroke: white; stroke-linecap: round; stroke-linejoin: round;"><tspan x="-10.64240630457337" y="0" dy="0" text-anchor="end" style="font-family: Arial, sans-serif; font-size: 10px; fill: black; font-weight: bold;">Colombia</tspan></text></g><g transform="&#10;&#9;        rotate(200.25814583361506)&#10;&#9;        translate(222.5,0)&#10;&#9;        rotate(180)&#10;&#9;      "><text x="0" y="0" text-anchor="middle" dominant-baseline="text-before-edge" transform="translate(0,-5.5)" style="stroke-width: 2px; paint-order: stroke; stroke: white; stroke-linecap: round; stroke-linejoin: round;"><tspan x="-9.722357300314112" y="0" dy="0" text-anchor="end" style="font-family: Arial, sans-serif; font-size: 10px; fill: black; font-weight: bold;">Chile</tspan></text></g><g transform="&#10;&#9;        rotate(210.51881812917003)&#10;&#9;        translate(222.5,0)&#10;&#9;        rotate(180)&#10;&#9;      "><text x="0" y="0" text-anchor="middle" dominant-baseline="text-before-edge" transform="translate(0,-5.5)" style="stroke-width: 2px; paint-order: stroke; stroke: white; stroke-linecap: round; stroke-linejoin: round;"><tspan x="-8.649897012913875" y="0" dy="0" text-anchor="end" style="font-family: Arial, sans-serif; font-size: 10px; fill: black; font-weight: bold;">Venezuela</tspan></text></g><g transform="&#10;&#9;        rotate(220.570545188508)&#10;&#9;        translate(222.5,0)&#10;&#9;        rotate(180)&#10;&#9;      "><text x="0" y="0" text-anchor="middle" dominant-baseline="text-before-edge" transform="translate(0,-5.5)" style="stroke-width: 2px; paint-order: stroke; stroke: white; stroke-linecap: round; stroke-linejoin: round;"><tspan x="-8.51676773041039" y="0" dy="0" text-anchor="end" style="font-family: Arial, sans-serif; font-size: 10px; fill: black; font-weight: bold;">Argentina</tspan></text></g><g transform="&#10;&#9;        rotate(231.5141469234614)&#10;&#9;        translate(222.5,0)&#10;&#9;        rotate(180)&#10;&#9;      "><text x="0" y="0" text-anchor="middle" dominant-baseline="text-before-edge" transform="translate(0,-5.5)" style="stroke-width: 2px; paint-order: stroke; stroke: white; stroke-linecap: round; stroke-linejoin: round;"><tspan x="-13.79590955692116" y="0" dy="0" text-anchor="end" style="font-family: Arial, sans-serif; font-size: 10px; fill: black; font-weight: bold;">United States</tspan></text></g><g transform="&#10;&#9;        rotate(242.9835191312306)&#10;&#9;        translate(222.5,0)&#10;&#9;        rotate(180)&#10;&#9;      "><text x="0" y="0" text-anchor="middle" dominant-baseline="text-before-edge" transform="translate(0,-5.5)" style="stroke-width: 2px; paint-order: stroke; stroke: white; stroke-linecap: round; stroke-linejoin: round;"><tspan x="-11.55040185227957" y="0" dy="0" text-anchor="end" style="font-family: Arial, sans-serif; font-size: 10px; fill: black; font-weight: bold;">Mexico</tspan></text></g><g transform="&#10;&#9;        rotate(253.67477422388873)&#10;&#9;        translate(222.5,0)&#10;&#9;        rotate(180)&#10;&#9;      "><text x="0" y="0" text-anchor="middle" dominant-baseline="text-before-edge" transform="translate(0,-5.5)" style="stroke-width: 2px; paint-order: stroke; stroke: white; stroke-linecap: round; stroke-linejoin: round;"><tspan x="-9.306264829309702" y="0" dy="0" text-anchor="end" style="font-family: Arial, sans-serif; font-size: 10px; fill: black; font-weight: bold;">Canada</tspan></text></g><g transform="&#10;&#9;        rotate(263.7382683030751)&#10;&#9;        translate(222.5,0)&#10;&#9;        rotate(180)&#10;&#9;      "><text x="0" y="0" text-anchor="middle" dominant-baseline="text-before-edge" transform="translate(0,-5.5)" style="stroke-width: 2px; paint-order: stroke; stroke: white; stroke-linecap: round; stroke-linejoin: round;"><tspan x="-7.928294241996794" y="0" dy="0" text-anchor="end" style="font-family: Arial, sans-serif; font-size: 10px; fill: black; font-weight: bold;">Cuba</tspan></text></g></g></g></svg>